<svg width="213" height="50" viewBox="0 0 213 50" fill="none" xmlns="http://www.w3.org/2000/svg">
<path d="M13.6963 41.7998C14.9984 41.7998 16.0563 41.4417 16.8701 40.7256C17.6839 40.0094 18.1071 39.0573 18.1396 37.8691H24.7559C24.7396 39.6595 24.2513 41.3034 23.291 42.8008C22.3307 44.2819 21.0124 45.4375 19.3359 46.2676C17.6758 47.0814 15.8366 47.4883 13.8184 47.4883C10.0423 47.4883 7.0638 46.292 4.88281 43.8994C2.70182 41.4906 1.61133 38.1702 1.61133 33.9385V33.4746C1.61133 29.4056 2.69368 26.1585 4.8584 23.7334C7.02311 21.3083 9.99349 20.0957 13.7695 20.0957C17.0736 20.0957 19.7184 21.0397 21.7041 22.9277C23.7061 24.7995 24.7233 27.2979 24.7559 30.4229H18.1396C18.1071 29.0557 17.6839 27.9489 16.8701 27.1025C16.0563 26.2399 14.9821 25.8086 13.6475 25.8086C12.0036 25.8086 10.7585 26.4108 9.91211 27.6152C9.08203 28.8034 8.66699 30.7402 8.66699 33.4258V34.1582C8.66699 36.8763 9.08203 38.8294 9.91211 40.0176C10.7422 41.2057 12.0036 41.7998 13.6963 41.7998ZM44.0918 47C43.7663 46.3652 43.5303 45.5758 43.3838 44.6318C41.6748 46.5361 39.4531 47.4883 36.7188 47.4883C34.1309 47.4883 31.9824 46.7396 30.2734 45.2422C28.5807 43.7448 27.7344 41.8568 27.7344 39.5781C27.7344 36.7786 28.7679 34.6302 30.835 33.1328C32.9183 31.6354 35.9212 30.8786 39.8438 30.8623H43.0908V29.3486C43.0908 28.1279 42.7734 27.1514 42.1387 26.4189C41.5202 25.6865 40.5355 25.3203 39.1846 25.3203C37.9964 25.3203 37.0605 25.6051 36.377 26.1748C35.7096 26.7445 35.376 27.5257 35.376 28.5186H28.3203C28.3203 26.9886 28.7923 25.5726 29.7363 24.2705C30.6803 22.9684 32.015 21.9512 33.7402 21.2188C35.4655 20.4701 37.4023 20.0957 39.5508 20.0957C42.806 20.0957 45.3857 20.9176 47.29 22.5615C49.2106 24.1891 50.1709 26.484 50.1709 29.4463V40.8965C50.1872 43.403 50.5371 45.2992 51.2207 46.585V47H44.0918ZM38.2568 42.0928C39.2985 42.0928 40.2588 41.8649 41.1377 41.4092C42.0166 40.9372 42.6676 40.3105 43.0908 39.5293V34.9883H40.4541C36.9222 34.9883 35.0423 36.209 34.8145 38.6504L34.79 39.0654C34.79 39.9443 35.0993 40.6686 35.7178 41.2383C36.3363 41.8079 37.1826 42.0928 38.2568 42.0928ZM62.207 20.584L62.4268 23.5381C64.2985 21.2432 66.8294 20.0957 70.0195 20.0957C73.4212 20.0957 75.7568 21.4385 77.0264 24.124C78.8818 21.4385 81.5267 20.0957 84.9609 20.0957C87.8255 20.0957 89.9577 20.9339 91.3574 22.6104C92.7572 24.2705 93.457 26.777 93.457 30.1299V47H86.377V30.1543C86.377 28.6569 86.084 27.5664 85.498 26.8828C84.9121 26.1829 83.8786 25.833 82.3975 25.833C80.2816 25.833 78.8167 26.8421 78.0029 28.8604L78.0273 47H70.9717V30.1787C70.9717 28.6488 70.6706 27.542 70.0684 26.8584C69.4661 26.1748 68.4408 25.833 66.9922 25.833C64.9902 25.833 63.5417 26.6631 62.6465 28.3232V47H55.5908V20.584H62.207ZM111.06 47.4883C107.186 47.4883 104.028 46.3001 101.587 43.9238C99.1618 41.5475 97.9492 38.3818 97.9492 34.4268V33.7432C97.9492 31.0902 98.4619 28.722 99.4873 26.6387C100.513 24.5391 101.961 22.9277 103.833 21.8047C105.721 20.6654 107.869 20.0957 110.278 20.0957C113.892 20.0957 116.732 21.235 118.799 23.5137C120.882 25.7923 121.924 29.0231 121.924 33.2061V36.0869H105.103C105.33 37.8122 106.014 39.1956 107.153 40.2373C108.309 41.279 109.766 41.7998 111.523 41.7998C114.242 41.7998 116.366 40.8151 117.896 38.8457L121.362 42.7275C120.304 44.2249 118.872 45.3968 117.065 46.2432C115.259 47.0732 113.257 47.4883 111.06 47.4883ZM110.254 25.8086C108.854 25.8086 107.715 26.2806 106.836 27.2246C105.973 28.1686 105.42 29.5195 105.176 31.2773H114.99V30.7158C114.958 29.1533 114.535 27.9489 113.721 27.1025C112.907 26.2399 111.751 25.8086 110.254 25.8086Z" fill="#4F4F4F"/>
<path d="M140.796 27.2002C139.836 27.07 138.989 27.0049 138.257 27.0049C135.588 27.0049 133.838 27.9082 133.008 29.7148V47H125.952V20.584H132.617L132.812 23.7334C134.229 21.3083 136.19 20.0957 138.696 20.0957C139.478 20.0957 140.21 20.2015 140.894 20.4131L140.796 27.2002ZM155.884 47.4883C152.01 47.4883 148.853 46.3001 146.411 43.9238C143.986 41.5475 142.773 38.3818 142.773 34.4268V33.7432C142.773 31.0902 143.286 28.722 144.312 26.6387C145.337 24.5391 146.785 22.9277 148.657 21.8047C150.545 20.6654 152.694 20.0957 155.103 20.0957C158.716 20.0957 161.556 21.235 163.623 23.5137C165.706 25.7923 166.748 29.0231 166.748 33.2061V36.0869H149.927C150.155 37.8122 150.838 39.1956 151.978 40.2373C153.133 41.279 154.59 41.7998 156.348 41.7998C159.066 41.7998 161.19 40.8151 162.72 38.8457L166.187 42.7275C165.129 44.2249 163.696 45.3968 161.89 46.2432C160.083 47.0732 158.081 47.4883 155.884 47.4883ZM155.078 25.8086C153.678 25.8086 152.539 26.2806 151.66 27.2246C150.798 28.1686 150.244 29.5195 150 31.2773H159.814V30.7158C159.782 29.1533 159.359 27.9489 158.545 27.1025C157.731 26.2399 156.576 25.8086 155.078 25.8086ZM177.271 20.584L177.49 23.6357C179.378 21.2757 181.909 20.0957 185.083 20.0957C187.882 20.0957 189.966 20.9176 191.333 22.5615C192.7 24.2054 193.4 26.6631 193.433 29.9346V47H186.377V30.1055C186.377 28.6081 186.051 27.5257 185.4 26.8584C184.749 26.1748 183.667 25.833 182.153 25.833C180.168 25.833 178.678 26.6794 177.686 28.3721V47H170.63V20.584H177.271ZM207.251 14.0898V20.584H211.768V25.7598H207.251V38.9434C207.251 39.9199 207.438 40.6198 207.812 41.043C208.187 41.4661 208.903 41.6777 209.961 41.6777C210.742 41.6777 211.434 41.6208 212.036 41.5068V46.8535C210.653 47.2767 209.229 47.4883 207.764 47.4883C202.816 47.4883 200.293 44.9899 200.195 39.9932V25.7598H196.338V20.584H200.195V14.0898H207.251Z" fill="url(#paint0_linear)"/>
<defs>
<linearGradient id="paint0_linear" x1="106.5" y1="0" x2="106.5" y2="50" gradientUnits="userSpaceOnUse">
<stop stop-color="#BB6BD9"/>
<stop offset="0.5" stop-color="#BB6BD9"/>
<stop offset="0.9999" stop-color="#BB6BD9"/>
<stop offset="1" stop-color="#9B51E0"/>
</linearGradient>
</defs>
</svg>
